<svg xmlns="http://www.w3.org/2000/svg" xmlns:xlink="http://www.w3.org/1999/xlink" width="100" height="100" viewBox="0 0 100 100">
  <defs>
    <clipPath id="clip-path">
      <rect id="Rectangle_3259" data-name="Rectangle 3259" width="100" height="100" transform="translate(-260 10078)" fill="#1b1b1d" opacity="0.5"/>
    </clipPath>
  </defs>
  <g id="favourites" transform="translate(260 -10078)" clip-path="url(#clip-path)">
    <g id="favourites-2" data-name="favourites" transform="translate(-260 10084)">
      <path id="Path_10240" data-name="Path 10240" d="M2822.078,147.227c-.445,1.481-.525,3.034-.941,4.528a26.121,26.121,0,0,1-6.581,11.664q-16.1,16.189-32.318,32.264c-2.7,2.671-5.4,5.356-8.124,8a2.806,2.806,0,0,1-4.082.11c-.146-.13-.277-.275-.415-.413q-19.562-19.561-39.125-39.121a27.491,27.491,0,0,1-8.1-15.737,27.58,27.58,0,0,1,22.827-31.382A27.556,27.556,0,0,1,2767.257,123a38.589,38.589,0,0,1,4.23,4.027c.479.514.77.465,1.232-.017a35.552,35.552,0,0,1,8.017-6.566,26.372,26.372,0,0,1,9.109-3.244,27.766,27.766,0,0,1,31.445,20.7c.329,1.271.527,2.576.787,3.866Zm-5.831-3.1c.3-5.79-2.662-11.524-6.105-14.939a21.549,21.549,0,0,0-19.111-6.33,20.37,20.37,0,0,0-11.819,5.841q-2.374,2.387-4.766,4.756a2.992,2.992,0,0,1-4.679,0c-1.519-1.517-3.048-3.024-4.551-4.557a20.577,20.577,0,0,0-3.794-3.006,21.868,21.868,0,0,0-14.693-3.083,20.194,20.194,0,0,0-11.27,5c-5.587,4.985-8.257,11.243-7.471,18.794a21.181,21.181,0,0,0,6.062,13.063c9.642,9.764,19.5,19.313,29.028,29.189,2.619,2.715,5.329,5.343,8,8.011.937.937.938.937,1.884-.01L2810,159.79a14.717,14.717,0,0,0,1.1-1.1A21.691,21.691,0,0,0,2816.247,144.123Z" transform="translate(-2722.078 -116.787)" fill="#dcbcbc" fill-rule="evenodd"/>
    </g>
  </g>
</svg>
