<svg xmlns="http://www.w3.org/2000/svg" xmlns:xlink="http://www.w3.org/1999/xlink" width="100" height="100" viewBox="0 0 100 100">
  <defs>
    <clipPath id="clip-path">
      <rect id="Rectangle_3257" data-name="Rectangle 3257" width="100" height="100" transform="translate(-588 10078)" fill="#1b1b1d" opacity="0.5"/>
    </clipPath>
  </defs>
  <g id="my-orders" transform="translate(588 -10078)" clip-path="url(#clip-path)">
    <g id="my-orders-2" data-name="my-orders" transform="translate(-588 10078)">
      <path id="Path_10215" data-name="Path 10215" d="M1461.237,185.676h-55.268c-.21-.188-.484-.162-.732-.223a6.562,6.562,0,0,1-4.937-5.621q0-38.878,0-77.755a6.584,6.584,0,0,1,6.389-5.838q4.735-.045,9.471.008c.719.008,1.079-.139,1.294-.91a4,4,0,0,1,4.07-3.008c.716-.009,1.434-.031,2.148.007a1.066,1.066,0,0,0,1.17-.753,9.414,9.414,0,0,1,7.071-5.552,30.348,30.348,0,0,1,5.592-.281c18.389-.1,36.779-.064,55.168-.059a6.966,6.966,0,0,1,1.357.1,7.154,7.154,0,0,1,6.051,7.4q.006,39.887.028,79.774a7.577,7.577,0,0,1-7.732,7.72c-8.2-.188-16.4-.048-24.6-.069-.717,0-1.137.162-1.358.9a5.329,5.329,0,0,1-1.252,1.955A7.7,7.7,0,0,1,1461.237,185.676Zm-.17-44.716q0-18.695,0-37.39c0-1.319-.16-1.483-1.445-1.486-2.9-.005-5.793.015-8.688-.014-.709-.007-1.013.135-1.058.951a4.382,4.382,0,0,1-4.263,4.155q-12.056.037-24.113,0a4.292,4.292,0,0,1-4.189-4.1c-.027-.849-.34-1.019-1.1-1.009-2.831.037-5.662.013-8.493.015-1.546,0-1.726.183-1.726,1.748q0,37.1,0,74.194c0,1.627.164,1.792,1.78,1.792h51.643c1.557,0,1.659-.1,1.659-1.663Q1461.068,159.558,1461.068,140.961Zm33.161-7.826q0-19.766,0-39.532c0-1.679-.385-2.058-2.068-2.058h-48.61a2.836,2.836,0,0,0-.487.006c-.222.039-.591-.148-.6.27-.008.347.234.505.584.5.781,0,1.562,0,2.343,0a4.088,4.088,0,0,1,4.321,3.084,1.011,1.011,0,0,0,1.173.834c3.123-.031,6.247-.005,9.37-.018a6.112,6.112,0,0,1,2.738.6,6.588,6.588,0,0,1,3.94,6.406q-.018,35.091-.005,70.182c0,1.35,0,1.352,1.313,1.352q11.957,0,23.915,0c1.8,0,2.074-.279,2.074-2.1Q1494.228,152.9,1494.228,133.134Zm-60.639-31.8c2.8,0,5.6.019,8.393-.006,2.42-.022,2.007.393,2.081-2.143.021-.737-.165-1.086-.973-1.017-.743.064-1.5.014-2.243.013-2.369,0-3.351-.879-3.639-3.244a3.653,3.653,0,0,0-3.5-3.2,3.616,3.616,0,0,0-3.714,2.942c-.485,2.9-1.2,3.5-4.117,3.5h-.586c-2.194,0-2.162,0-2.171,2.159,0,.766.234,1.016,1.005,1.008C1427.278,101.315,1430.434,101.335,1433.59,101.336Z" transform="translate(-1400.111 -85.679)" fill="#dcbcbc" fill-rule="evenodd"/>
      <path id="Path_10216" data-name="Path 10216" d="M1399.33,169.662a.917.917,0,0,0,.19-.013q0,38.877,0,77.755a.944.944,0,0,0-.19-.015Z" transform="translate(-1399.33 -153.25)" fill="#dcbcbc" fill-rule="evenodd"/>
      <path id="Path_10217" data-name="Path 10217" d="M1480.148,335.673q-9.276,0-18.552,0c-1.979,0-3.258-1.107-3.277-2.816-.021-1.808,1.3-3.034,3.322-3.034q18.552-.008,37.105,0a3.07,3.07,0,0,1,3.279,2.347,2.937,2.937,0,0,1-1.785,3.327,3.638,3.638,0,0,1-1.441.177Q1489.474,335.675,1480.148,335.673Z" transform="translate(-1446.798 -282.139)" fill="#dcbcbc" fill-rule="evenodd"/>
      <path id="Path_10218" data-name="Path 10218" d="M1480.072,506.564q-9.372,0-18.744,0a2.9,2.9,0,0,1-2.844-1.687,2.742,2.742,0,0,1,.335-3.031,3.036,3.036,0,0,1,2.569-1.147q8.689.013,17.378,0,10.056,0,20.111,0a2.88,2.88,0,0,1,2.777,1.644,2.774,2.774,0,0,1-.347,3.116,3.041,3.041,0,0,1-2.588,1.1Q1489.4,506.549,1480.072,506.564Z" transform="translate(-1446.682 -419.651)" fill="#dcbcbc" fill-rule="evenodd"/>
      <path id="Path_10219" data-name="Path 10219" d="M1577.562,273.609c-2.732,0-5.464.005-8.2,0a2.852,2.852,0,0,1-3.118-2.871,2.886,2.886,0,0,1,3.147-2.974c4.293-.021,8.586-.007,12.879-.007,1.171,0,2.342-.016,3.512.005a2.941,2.941,0,0,1,3.134,3.005,2.884,2.884,0,0,1-3.164,2.842C1583.025,273.615,1580.292,273.609,1577.562,273.609Z" transform="translate(-1533.651 -232.191)" fill="#dcbcbc" fill-rule="evenodd"/>
      <path id="Path_10220" data-name="Path 10220" d="M1577.5,445.507c-2.764,0-5.529.02-8.293-.008a2.934,2.934,0,0,1-1.168-5.681,3.053,3.053,0,0,1,1.15-.162q8.293,0,16.586,0a2.859,2.859,0,0,1,3.061,2.84,2.929,2.929,0,0,1-3.043,3C1583.026,445.532,1580.26,445.507,1577.5,445.507Z" transform="translate(-1533.562 -370.525)" fill="#dcbcbc" fill-rule="evenodd"/>
      <path id="Path_10221" data-name="Path 10221" d="M1476.182,228.64a2.488,2.488,0,0,1-.665,1.828c-2.371,2.72-4.732,5.45-7.143,8.134a3.059,3.059,0,0,1-4.775.136c-1.068-1-2.169-1.966-3.218-2.986a2.849,2.849,0,0,1-.151-4.186,2.992,2.992,0,0,1,4.15-.032c1.42,1.263,1.385,1.234,2.646-.251q2.082-2.452,4.287-4.8a2.686,2.686,0,0,1,3.234-.562A2.837,2.837,0,0,1,1476.182,228.64Z" transform="translate(-1447.658 -198.291)" fill="#dcbcbc" fill-rule="evenodd"/>
      <path id="Path_10222" data-name="Path 10222" d="M1465.961,411.608a3.074,3.074,0,0,1-2.313-.956c-1.12-.99-2.226-2-3.3-3.038a2.849,2.849,0,0,1-.21-4.106,2.974,2.974,0,0,1,4.138-.181c1.434,1.2,1.444,1.208,2.7-.208q1.944-2.185,3.849-4.4a3.062,3.062,0,0,1,4.254-.594,2.938,2.938,0,0,1,.295,4.34c-2.354,2.733-4.747,5.433-7.131,8.141A2.639,2.639,0,0,1,1465.961,411.608Z" transform="translate(-1447.638 -336.608)" fill="#dcbcbc" fill-rule="evenodd"/>
    </g>
  </g>
</svg>
