<svg xmlns="http://www.w3.org/2000/svg" xmlns:xlink="http://www.w3.org/1999/xlink" width="100" height="100" viewBox="0 0 100 100">
  <defs>
    <clipPath id="clip-path">
      <rect id="Rectangle_3255" data-name="Rectangle 3255" width="100" height="100" transform="translate(-720 10078)" fill="#1b1b1d" opacity="0.5"/>
    </clipPath>
  </defs>
  <g id="my-quotes" transform="translate(720 -10078)" clip-path="url(#clip-path)">
    <g id="my-quotes-2" data-name="my-quotes" transform="translate(-715 10078)">
      <path id="Path_10223" data-name="Path 10223" d="M778.656,185.564a24.608,24.608,0,0,1-5.286-1.847c-5.141-2.982-8.165-7.329-8.18-13.354-.059-23.168.008-46.337-.043-69.5a15.645,15.645,0,0,1,13.311-15.1,19.169,19.169,0,0,1,2.52-.165c15.782,0,31.564.066,47.345-.031a15.86,15.86,0,0,1,15.874,13.3,21.455,21.455,0,0,1,.224,3.4q.029,10.982,0,21.964a5.03,5.03,0,0,1-.841,3.331,3.859,3.859,0,0,1-4.346,1.372,4.076,4.076,0,0,1-2.758-4.158q-.015-8.444,0-16.888c0-2.31.011-4.621-.007-6.931a7.657,7.657,0,0,0-7.445-7.533q-24.307-.048-48.615,0a7.646,7.646,0,0,0-7.422,7.555q-.016,34.606,0,69.212a7.7,7.7,0,0,0,7.624,7.56c4.263.022,8.525,0,12.788.006a4,4,0,0,1,4.175,2.952c.452,2.158-.476,3.778-2.679,4.685a1.083,1.083,0,0,0-.225.173Z" transform="translate(-765.148 -85.564)" fill="#dcbcbc" fill-rule="evenodd"/>
      <path id="Path_10224" data-name="Path 10224" d="M984.724,404.563a4.387,4.387,0,0,1-3.028-3.477,4.034,4.034,0,0,1,.23-1.806c1.5-4.97,3.031-9.928,4.54-14.895a4.8,4.8,0,0,1,1.244-2.055q10.641-10.616,21.272-21.242a11.72,11.72,0,0,1,16.622,16.527c-7.036,7.09-14.13,14.121-21.177,21.2-1.312,1.317-3.054,1.521-4.685,1.987-4.332,1.239-8.686,2.4-13.03,3.593-.086.024-.154.11-.23.168Zm6.834-9.764a4.6,4.6,0,0,0,.868-.07q3.051-.83,6.091-1.7a2.541,2.541,0,0,0,1.194-.607q6.718-6.744,13.471-13.452c.5-.5.361-.758-.056-1.164-1.352-1.316-2.713-2.628-3.995-4.012-.655-.707-1.059-.772-1.772-.032-2.461,2.553-4.952,5.082-7.524,7.524-1.864,1.77-3.665,3.6-5.5,5.4a2.1,2.1,0,0,0-.6.748c-.754,2.446-1.647,4.852-2.175,7.364l-.042.082C991.531,394.855,991.544,394.827,991.558,394.8Zm29.5-25.235a3.7,3.7,0,0,0-2.654-3.858,4,4,0,0,0-4.35,1.391.464.464,0,0,0,.05.738q2.315,2.3,4.616,4.618c.354.358.623.32.985-.011A3.48,3.48,0,0,0,1021.059,369.564Z" transform="translate(-939.389 -304.563)" fill="#dcbcbc" fill-rule="evenodd"/>
      <path id="Path_10225" data-name="Path 10225" d="M868.845,213.525q-9.957,0-19.914,0a3.9,3.9,0,1,1-.033-7.805q8.883-.007,17.767,0,11.031,0,22.062,0a3.909,3.909,0,1,1,.033,7.808Q878.8,213.529,868.845,213.525Z" transform="translate(-829.335 -182.255)" fill="#dcbbbb" fill-rule="evenodd"/>
      <path id="Path_10226" data-name="Path 10226" d="M868.846,293.525q-9.957,0-19.914,0a3.9,3.9,0,1,1-.033-7.8q8.883-.007,17.767,0,11.031,0,22.062,0a3.909,3.909,0,1,1,.033,7.808Q878.8,293.529,868.846,293.525Z" transform="translate(-829.336 -246.635)" fill="#dcbbbb" fill-rule="evenodd"/>
      <path id="Path_10227" data-name="Path 10227" d="M861.152,373.487q-5.952,0-11.905,0a3.906,3.906,0,1,1,.029-7.807c8,0,16,.014,24.005-.011a3.921,3.921,0,1,1-.029,7.831C869.219,373.458,865.186,373.487,861.152,373.487Z" transform="translate(-829.586 -310.976)" fill="#dcbbbb" fill-rule="evenodd"/>
      <path id="Path_10228" data-name="Path 10228" d="M1032.166,547.712l-.04.084.042-.082Z" transform="translate(-979.997 -457.476)" fill="#fefefe" fill-rule="evenodd"/>
    </g>
  </g>
</svg>
