<svg xmlns="http://www.w3.org/2000/svg" xmlns:xlink="http://www.w3.org/1999/xlink" width="100" height="100" viewBox="0 0 100 100">
  <defs>
    <clipPath id="clip-path">
      <rect id="Rectangle_3256" data-name="Rectangle 3256" width="100" height="100" transform="translate(-433 10078)" fill="#1b1b1d" opacity="0.5"/>
    </clipPath>
  </defs>
  <g id="payments" transform="translate(433 -10078)" clip-path="url(#clip-path)">
    <g id="payments-2" data-name="payments" transform="translate(-433 10085)">
      <path id="Path_10235" data-name="Path 10235" d="M2161.234,171.683a4.533,4.533,0,0,1-2.506,1.721c-3.413,1.346-6.812,2.727-10.236,4.043a1.263,1.263,0,0,0-.936,1.423c.03,8.754.02,17.508.019,26.263,0,1.931-.558,2.482-2.5,2.482h-81.229c-1.967,0-2.589-.636-2.589-2.645q0-24.7-.019-49.4c0-1.858.277-2.587,2.445-3.494,4.491-1.88,9.047-3.6,13.573-5.4q14.072-5.6,28.14-11.213,16.92-6.743,33.841-13.485c1.584-.631,2.542-.226,3.172,1.358q6.016,15.113,12.024,30.229,3.24,8.146,6.484,16.289a2.551,2.551,0,0,0,.321.47Q2161.234,171,2161.234,171.683Zm-56.8,32.025q19.039,0,38.078.022c.952,0,1.176-.265,1.174-1.194q-.045-22.359,0-44.717c0-.919-.2-1.205-1.167-1.2q-38.078.04-76.155,0c-1.015,0-1.225.284-1.223,1.25q.047,22.309,0,44.619c0,.956.191,1.257,1.216,1.254C2079.05,203.694,2091.741,203.708,2104.434,203.708Zm-31.281-51.177q.024.1.049.2c3.286,0,6.571-.005,9.857,0,.971,0,1.946.132,2.626-.849.177-.255.613-.346.944-.478q10.81-4.307,21.624-8.6,9.095-3.616,18.191-7.226a2.093,2.093,0,0,1,2.748.735,6.508,6.508,0,0,0,.571.663,11.3,11.3,0,0,0,8.879,3.469,2.471,2.471,0,0,1,2.782,1.741c1.246,3.207,2.541,6.395,3.833,9.584.149.369.212.793.705.977,1.4.524,1.613.867,1.613,2.38q0,8.687,0,17.374c0,1.045.056,1.086,1.036.7,2.263-.9,4.519-1.813,6.782-2.709,1.341-.531,1.332-.516.8-1.856q-3.155-7.915-6.3-15.835-5.12-12.845-10.236-25.692c-.262-.661-.523-.844-1.218-.566-7.534,3.013-15.082,5.993-22.621,8.994q-18.683,7.437-37.359,14.888Zm21.279-.009c.012.069.024.139.036.208h45.871c.1,0,.2-.006.293,0,.586.043.756-.135.51-.734q-1.391-3.377-2.707-6.784a1.231,1.231,0,0,0-1.31-.875,14.3,14.3,0,0,1-9.391-3.957,1.625,1.625,0,0,0-2.03-.356c-8.161,3.287-16.339,6.53-24.511,9.787Q2097.809,151.161,2094.432,152.522Z" transform="translate(-2061.234 -121.686)" fill="#dcbcbc" fill-rule="evenodd"/>
      <path id="Path_10236" data-name="Path 10236" d="M2136.709,359.959q-11.711,0-23.423,0c-1.676,0-2.1-.268-2.681-1.836a11.589,11.589,0,0,0-7.493-7.38,2.171,2.171,0,0,1-1.719-2.407q-.023-8.1,0-16.2a2.03,2.03,0,0,1,1.591-2.168,11.577,11.577,0,0,0,7.6-7.507,2.12,2.12,0,0,1,2.455-1.741q23.716,0,47.433,0a2.1,2.1,0,0,1,2.373,1.707,11.7,11.7,0,0,0,7.44,7.448,2.172,2.172,0,0,1,1.763,2.449q.01,7.954,0,15.908a2.18,2.18,0,0,1-1.784,2.534,11.513,11.513,0,0,0-7.446,7.539,2.024,2.024,0,0,1-2.3,1.651q-11.907,0-23.814,0A.023.023,0,0,1,2136.709,359.959Zm.106-3.907c7.225,0,14.45-.015,21.675.022a1.36,1.36,0,0,0,1.441-.956,14.893,14.893,0,0,1,7.438-7.4,1.128,1.128,0,0,0,.8-1.22c-.026-4.1-.032-8.2.005-12.3a1.237,1.237,0,0,0-.844-1.317,14.739,14.739,0,0,1-7.378-7.327,1.441,1.441,0,0,0-1.546-.952q-21.675.037-43.351.018c-.195,0-.392.016-.585,0a.673.673,0,0,0-.733.5,14.934,14.934,0,0,1-7.685,7.8,1.173,1.173,0,0,0-.774,1.264c.03,4.035.037,8.071,0,12.107a1.39,1.39,0,0,0,.935,1.475,15.252,15.252,0,0,1,7.364,7.366,1.456,1.456,0,0,0,1.569.939C2122.364,356.041,2129.589,356.051,2136.814,356.051Z" transform="translate(-2093.542 -281.849)" fill="#dcbcbc" fill-rule="evenodd"/>
      <path id="Path_10237" data-name="Path 10237" d="M2245.647,372.534a11.638,11.638,0,0,1-11.731,11.772,11.789,11.789,0,1,1,11.731-11.772Zm-11.765,7.743c4.365.279,7.915-3.666,7.868-7.665a7.869,7.869,0,0,0-7.765-7.97,7.954,7.954,0,0,0-7.893,7.761A7.756,7.756,0,0,0,2233.882,380.277Z" transform="translate(-2190.738 -314.05)" fill="#dcbcbc" fill-rule="evenodd"/>
      <path id="Path_10238" data-name="Path 10238" d="M2159.491,405.793a3.09,3.09,0,0,1,2.978,3,3,3,0,1,1-6.005-.022A3.173,3.173,0,0,1,2159.491,405.793Zm.078,3.905a.819.819,0,0,0,.9-.926.96.96,0,0,0-.99-.984.91.91,0,0,0-.992.956A.961.961,0,0,0,2159.57,409.7Z" transform="translate(-2137.867 -350.314)" fill="#dcbcbc" fill-rule="evenodd"/>
      <path id="Path_10239" data-name="Path 10239" d="M2378.186,408.747a2.878,2.878,0,0,1,2.957-2.949,3.109,3.109,0,0,1,2.9,2.979,3.067,3.067,0,0,1-2.989,2.992A2.856,2.856,0,0,1,2378.186,408.747Zm3.134.964c.4.028.717-.361.728-.88a.963.963,0,0,0-1.038-1.036.834.834,0,0,0-.869.948C2380.164,409.377,2380.48,409.685,2381.32,409.711Z" transform="translate(-2316.28 -350.318)" fill="#dcbcbc" fill-rule="evenodd"/>
    </g>
  </g>
</svg>
