<svg xmlns="http://www.w3.org/2000/svg" xmlns:xlink="http://www.w3.org/1999/xlink" width="100" height="100" viewBox="0 0 100 100">
  <defs>
    <clipPath id="clip-path">
      <rect id="Rectangle_3258" data-name="Rectangle 3258" width="100" height="100" transform="translate(-105 10078)" fill="#1b1b1d" opacity="0.5"/>
    </clipPath>
  </defs>
  <g id="profile" transform="translate(105 -10078)" clip-path="url(#clip-path)">
    <g id="profile-2" data-name="profile" transform="translate(-99 10078)">
      <path id="Path_10241" data-name="Path 10241" d="M3499.945,185.6H3416.37c-1.761-.795-2.177-2.212-2.174-4.049q.057-40.318.026-80.637c0-2.481,1.086-3.575,3.549-3.575h42.564c4.458,0,8.916-.017,13.374.016.79.006,1.1-.2,1.064-1.031a15.726,15.726,0,0,1,.172-3.693,8.771,8.771,0,0,1,16.668-1.679,12.1,12.1,0,0,1,.7,5.366c-.037.827.256,1.062,1.056,1.037,1.69-.053,3.384-.016,5.076-.016,2.595,0,3.647,1.06,3.647,3.673q0,40.27.026,80.539C3502.12,183.386,3501.71,184.808,3499.945,185.6Zm-3.71-44.134q0-18.549,0-37.1c0-.625.111-1.2-.891-1.19-4.621.045-9.242.032-13.863.007-.7,0-.887.25-.88.911.029,2.571,0,5.142.015,7.712a2.93,2.93,0,1,0,5.855.153,2.932,2.932,0,1,1,5.855.243,8.786,8.786,0,0,1-17.569-.282c-.012-2.538-.044-5.078.019-7.614.023-.93-.3-1.13-1.167-1.128q-14.448.041-28.9,0c-.912,0-1.248.2-1.222,1.173.066,2.439.027,4.881.02,7.321a2.983,2.983,0,0,1-3.207,3.239c-2.408.008-4.816,0-7.224,0-1.281,0-1.283,0-1.283,1.265q0,31.143,0,62.286c0,1.275,0,1.278,1.27,1.278h61.9c1.271,0,1.272,0,1.272-1.276ZM3428.9,103.2h-7.449c-1.374,0-1.375,0-1.375,1.368v73.8c0,.2.017.392,0,.585-.056.583.182.816.782.8,1.236-.031,2.473-.008,3.709-.009,1.368,0,1.369,0,1.369-1.374q0-32.213-.023-64.427C3425.907,110.142,3426.374,106.547,3428.9,103.2Zm54.636-5.86c.746,0,1.491-.014,2.236,0,.488.012.713-.171.7-.679-.023-.842.039-1.688-.024-2.526a2.921,2.921,0,0,0-5.817,0c-.063.838,0,1.684-.023,2.526-.013.5.2.7.694.684C3482.051,97.322,3482.794,97.337,3483.54,97.337Zm-48.547,11.716c.651,0,1.3-.013,1.951,0,.477.013.721-.147.714-.668q-.027-2,0-4c.007-.554-.254-.6-.667-.41a8.751,8.751,0,0,0-4.4,4.369c-.216.467-.147.734.451.711C3433.69,109.034,3434.341,109.054,3434.993,109.054Z" transform="translate(-3414.196 -85.6)" fill="#dcbbbb" fill-rule="evenodd"/>
      <path id="Path_10242" data-name="Path 10242" d="M3552.783,247.522q-7.612,0-15.224,0c-2.214,0-3.288-1.148-3.37-3.363a19.338,19.338,0,0,1,3.337-12.089,17.815,17.815,0,0,1,5.654-5.283c.72-.424.879-.659.31-1.423a11.707,11.707,0,1,1,20.775-9.261,11.434,11.434,0,0,1-2.441,9.507c-.413.522-.322.673.192.988,6.789,4.164,9.664,10.344,9.276,18.173a2.917,2.917,0,0,1-3.091,2.749Q3560.493,247.533,3552.783,247.522Zm-.1-5.858c3.936,0,7.873-.013,11.809.012.729,0,.935-.144.807-.937a12.694,12.694,0,0,0-25.086-.048c-.125.84.087.992.858.986C3544.939,241.648,3548.812,241.664,3552.682,241.664ZM3546.9,218.25a5.857,5.857,0,1,0,5.884-5.875A5.882,5.882,0,0,0,3546.9,218.25Z" transform="translate(-3510.745 -182.865)" fill="#dcbbbb" fill-rule="evenodd"/>
      <path id="Path_10243" data-name="Path 10243" d="M3560.55,452.558q-11.561,0-23.12,0a2.9,2.9,0,0,1-2.742-1.524,2.743,2.743,0,0,1,.193-3.118,2.964,2.964,0,0,1,2.623-1.218q7.561.013,15.121,0,15.56,0,31.12,0a2.967,2.967,0,0,1,2.813,1.4,2.887,2.887,0,0,1-2.5,4.448c-3.219.036-6.439.01-9.658.01Z" transform="translate(-3510.84 -376.186)" fill="#dcbbbb" fill-rule="evenodd"/>
      <path id="Path_10244" data-name="Path 10244" d="M3560.556,512.557q-11.56,0-23.121,0a2.9,2.9,0,0,1-2.746-1.517,2.742,2.742,0,0,1,.184-3.119,2.956,2.956,0,0,1,2.619-1.224q6.439.013,12.878,0,16.682,0,33.364,0a2.975,2.975,0,0,1,2.817,1.4,2.889,2.889,0,0,1-2.485,4.455c-2.926.038-5.853.01-8.78.01Z" transform="translate(-3510.838 -424.469)" fill="#dcbbbb" fill-rule="evenodd"/>
      <path id="Path_10245" data-name="Path 10245" d="M3750.172,332.519c-.975,0-1.95.022-2.925,0a2.922,2.922,0,0,1,.011-5.843c1.949-.031,3.9-.027,5.849,0a2.923,2.923,0,1,1-.01,5.846C3752.123,332.536,3751.147,332.519,3750.172,332.519Z" transform="translate(-3679.879 -279.579)" fill="#dcbbbb" fill-rule="evenodd"/>
      <path id="Path_10246" data-name="Path 10246" d="M3750.2,386.7c.943,0,1.885-.012,2.828,0a2.925,2.925,0,1,1,.054,5.848q-2.875.036-5.752,0a2.925,2.925,0,1,1,.043-5.848C3748.315,386.689,3749.258,386.7,3750.2,386.7Z" transform="translate(-3679.88 -327.902)" fill="#dcbbbb" fill-rule="evenodd"/>
    </g>
  </g>
</svg>
