<svg xmlns="http://www.w3.org/2000/svg" xmlns:xlink="http://www.w3.org/1999/xlink" width="100" height="100" viewBox="0 0 100 100">
  <defs>
    <clipPath id="clip-path">
      <rect id="Rectangle_3254" data-name="Rectangle 3254" width="100" height="100" transform="translate(-875 10078)" fill="#1b1b1d" opacity="0.5"/>
    </clipPath>
  </defs>
  <g id="requests" transform="translate(875 -10078)" clip-path="url(#clip-path)">
    <g id="requests-2" data-name="requests" transform="translate(-875 10078)">
      <path id="Path_10229" data-name="Path 10229" d="M77.331,368.4c.39-1.257.494-2.575.909-3.836a18.5,18.5,0,0,1,7.475-9.769c.625-.422.561-.6.082-1.027A15.439,15.439,0,1,1,107,331.351a15.041,15.041,0,0,1,4.273,9.252,15.206,15.206,0,0,1-4.939,12.927c-.841.815-.82.793.112,1.463a18.39,18.39,0,0,1,7.943,13.444c.3,2.69.1,5.378.152,8.067.028,1.486-.971,2.314-2.12,3H79.67a3.868,3.868,0,0,1-2.339-2.339Q77.331,372.783,77.331,368.4Zm18.616,5.263H97.8q5.014,0,10.028,0c.4,0,.874.121.879-.568a23.357,23.357,0,0,0-.523-6.169,12.872,12.872,0,0,0-12.425-9.313,13.05,13.05,0,0,0-11.539,7.677,16.444,16.444,0,0,0-1.041,6.949c.041,1.6-.186,1.421,1.381,1.424Q90.251,373.669,95.947,373.66Zm-.053-22.005a9.357,9.357,0,0,0,9.612-9.5,9.5,9.5,0,0,0-9.567-9.615,9.637,9.637,0,0,0-9.634,9.575A9.5,9.5,0,0,0,95.894,351.655Z" transform="translate(-77.218 -279.702)" fill="#dcbcbc" fill-rule="evenodd"/>
      <path id="Path_10230" data-name="Path 10230" d="M76.864,585.717a3.868,3.868,0,0,0,2.339,2.339c-.78,0-1.864.3-2.254-.086S76.864,586.5,76.864,585.717Z" transform="translate(-76.751 -488.25)" fill="#fefefe" fill-rule="evenodd"/>
      <path id="Path_10231" data-name="Path 10231" d="M270.182,125.709c0-9.191.071-18.383-.026-27.574A12.449,12.449,0,0,1,279.737,86a11.677,11.677,0,0,1,2.5-.31q19,.012,38,.008a12.306,12.306,0,0,1,11.971,10.356,14.029,14.029,0,0,1,.165,2.126c0,12.439-.036,24.878.014,37.317A12.426,12.426,0,0,1,319.967,147.9c-10.782-.072-21.565-.015-32.348-.028a2.74,2.74,0,0,0-1.784.589c-3.609,2.748-7.248,5.457-10.879,8.176a2.871,2.871,0,0,1-3.116.347,2.778,2.778,0,0,1-1.665-2.731Q270.2,139.983,270.182,125.709Zm5.847,22.736c.353-.223.575-.343.774-.493,2.176-1.636,4.358-3.264,6.518-4.92a4.633,4.633,0,0,1,2.962-1.008c11.173.024,22.347-.051,33.52.053a6.782,6.782,0,0,0,6.75-6.766c-.08-12.31-.028-24.62-.03-36.93a6.482,6.482,0,0,0-6.829-6.835c-12.245,0-24.491.073-36.735-.043a6.9,6.9,0,0,0-6.976,6.951c.111,16.3.047,32.61.047,48.915C276.029,147.66,276.029,147.951,276.029,148.445Z" transform="translate(-232.456 -85.692)" fill="#dcbcbc" fill-rule="evenodd"/>
      <path id="Path_10232" data-name="Path 10232" d="M353.059,235.848q-7.594,0-15.187,0a3.063,3.063,0,0,1-3.334-2.25,2.854,2.854,0,0,1,2.143-3.56,11.1,11.1,0,0,1,1.929-.179q14.408-.017,28.816-.009a7.053,7.053,0,0,1,2.295.31,2.962,2.962,0,0,1,1.888,3.077,3.153,3.153,0,0,1-3.266,2.608c-4.348.015-8.7.005-13.045.005Z" transform="translate(-284.201 -201.749)" fill="#dcbcbc" fill-rule="evenodd"/>
      <path id="Path_10233" data-name="Path 10233" d="M352.871,171.626c-5.131,0-10.263-.049-15.393.028a2.988,2.988,0,0,1-3.119-2.89,3.042,3.042,0,0,1,3.092-2.979q15.442-.018,30.885,0a3.106,3.106,0,0,1,3.209,2.554,3.176,3.176,0,0,1-1.75,3.094,3.286,3.286,0,0,1-1.433.19Q360.616,171.629,352.871,171.626Z" transform="translate(-284.144 -150.166)" fill="#dcbcbc" fill-rule="evenodd"/>
      <path id="Path_10234" data-name="Path 10234" d="M345.245,294.683c2.531,0,5.062-.007,7.593,0a2.919,2.919,0,1,1,.025,5.838q-7.69.024-15.381,0a3.045,3.045,0,0,1-3.13-3.034,2.907,2.907,0,0,1,3.106-2.806C340.053,294.676,342.649,294.683,345.245,294.683Z" transform="translate(-284.138 -253.943)" fill="#dcbcbc" fill-rule="evenodd"/>
    </g>
  </g>
</svg>
